PathFileType	4	(X/Y/Z)	Trials08_11_BothHips_markers_cropped.trc
DataRate	CameraRate	NumFrames	NumMarkers	Units	OrigDataRate	OrigDataStartFrame	OrigNumFrames
200	200	5	27	m	200	50	202
Frame#	Time	R_ASIS			L_ASIS			Sacral			L_Thigh_Superior			L_Thigh_Posterior			L_Thigh_Inferior			L_Thigh_Lateral			L_Shank_Posterior			L_Shank_Superior			L_Shank_Lateral			L_Shank_Inferior			L_Midfoot_Superior			L_Heel			L_Midfoot_Lateral			L_Toe			R_Thigh_Posterior			R_Thigh_Superior			R_Thigh_Lateral			R_Thigh_Inferior			R_Shank_Posterior			R_Shank_Superior			R_Shank_Lateral			R_Shank_Inferior			R_Midfoot_Superior			R_Heel			R_Midfoot_Lateral			R_Toe
		X1	Y1	Z1	X2	Y2	Z2	X3	Y3	Z3	X4	Y4	Z4	X5	Y5	Z5	X6	Y6	Z6	X7	Y7	Z7	X8	Y8	Z8	X9	Y9	Z9	X10	Y10	Z10	X11	Y11	Z11	X12	Y12	Z12	X13	Y13	Z13	X14	Y14	Z14	X15	Y15	Z15	X16	Y16	Z16	X17	Y17	Z17	X18	Y18	Z18	X19	Y19	Z19	X20	Y20	Z20	X21	Y21	Z21	X22	Y22	Z22	X23	Y23	Z23	X24	Y24	Z24	X25	Y25	Z25	X26	Y26	Z26	X27	Y27	Z27

51	   0.250	    0.99973544969760	    1.02785299633855	    0.58876859926402	    1.06208516363045	    0.97832797638024	    0.34907402531002	    0.82906884904357	    1.01395218369749	    0.44138063189348	    1.05119103531266	    0.73267276856189	    0.30807597258591	    0.97696301764342	    0.72013273609093	    0.31231447649553	    1.06314167742342	    0.64118951125877	    0.33090436756906	    0.98358290962460	    0.63333964601988	    0.33317786762812	    0.93653296712101	    0.37144309987752	    0.36694602725792	    1.00717840765615	    0.34453081837199	    0.37435038308115	    0.92402833465497	    0.30158365428403	    0.37020047692469	    0.98858301427933	    0.28949771155281	    0.37690349508284	    1.01542669098348	    0.08756867624903	    0.47533989311017	    0.84343215703691	    0.03955531849846	    0.50327873251979	    0.94059941263779	    0.02577957080660	    0.43174672558725	    1.13954372662233	    0.03258640767781	    0.46955959231946	    1.05057740464906	    0.89807783115042	    0.69941799656340	    1.08580768594415	    0.95794080254150	    0.66908729150423	    1.14102607938794	    0.86179241264893	    0.71915530994918	    1.17068952894048	    0.92178300592491	    0.69320470957110	    1.40205615526153	    0.69798659615695	    0.77452592785665	    1.44982673194519	    0.75748297092125	    0.76243315629583	    1.46352471670403	    0.66213103249403	    0.78150509126432	    1.49935492045894	    0.72366503794798	    0.76717045078402	    1.70246196470740	    0.65946304998432	    0.74363769918389	    1.66828639109170	    0.48442237048132	    0.74007616926455	    1.73088979964635	    0.56849404124937	    0.80541730339586	    1.79345078782701	    0.75199793870102	    0.74628447920669
52	   0.255	    0.99870988168715	    1.03139385046205	    0.58681029568444	    1.05961024195957	    0.97889062308920	    0.34796462066079	    0.82692893978668	    1.01014020476831	    0.44157649091769	    1.05187497598535	    0.73318695503949	    0.30775030347145	    0.97764840541011	    0.72003797300609	    0.31257364175014	    1.06464319309317	    0.64180281309262	    0.33060526257131	    0.98516985657498	    0.63338137833177	    0.33363945565515	    0.93937955811500	    0.37191578323996	    0.36752627727273	    1.00980232551221	    0.34442252635384	    0.37490610440389	    0.92631862470132	    0.30210096092109	    0.37058032617310	    0.99078059189925	    0.28953298056670	    0.37731602600521	    1.01558886442025	    0.08763251963867	    0.47546207489846	    0.84355123379590	    0.03982771049859	    0.50321322393374	    0.94071112512561	    0.02591727960683	    0.43186622418800	    1.13967676832014	    0.03248640736762	    0.46950801369114	    1.05377605403860	    0.90713147816997	    0.69981430471736	    1.08534053865933	    0.96820963287810	    0.66771399048563	    1.14628363653610	    0.87659020884179	    0.71960006110140	    1.17230516346294	    0.93756880484063	    0.69194961405480	    1.41789078514100	    0.72995262726759	    0.77433592359852	    1.46142893839897	    0.79245562239224	    0.76109696685540	    1.48171092279449	    0.69853225204663	    0.78136037962248	    1.51329325460743	    0.76234348472924	    0.76603591568519	    1.72134604975497	    0.71087510338936	    0.74229572273542	    1.69726293295479	    0.53415197968140	    0.74046067749891	    1.75545643196070	    0.62248131155739	    0.80440353903079	    1.80671274771258	    0.80834001163416	    0.74243384452947
53	   0.260	    0.99743159196810	    1.03369196371421	    0.58507690419786	    1.05732736702397	    0.97922543619968	    0.34681468621474	    0.82514329480026	    1.00796557979478	    0.44095957908403	    1.05186261940491	    0.73353053655291	    0.30700901360196	    0.97769730660739	    0.71995635894736	    0.31222395897447	    1.06529963190374	    0.64225359927844	    0.33001030268180	    0.98591237719579	    0.63333728585197	    0.33356748245037	    0.94116742873524	    0.37217379523369	    0.36796626516583	    1.01146069086315	    0.34436830294496	    0.37525774641204	    0.92777948609904	    0.30244675375513	    0.37092536706680	    0.99218406676968	    0.28954276323942	    0.37763666893924	    1.01577267094667	    0.08767131002195	    0.47565526857201	    0.84372755196803	    0.04000567250981	    0.50337783932337	    0.94084876200298	    0.02608848652404	    0.43203860468091	    1.13983414256319	    0.03238319795551	    0.46945693565785	    1.05509615902814	    0.91231145715941	    0.69948196317540	    1.08440681130116	    0.97405766525155	    0.66641848670372	    1.14870711833058	    0.88530390121122	    0.71924052934253	    1.17248691011506	    0.94678778611380	    0.69064738983215	    1.42681776995686	    0.74898309709671	    0.77313638858719	    1.46703821079372	    0.81361439591330	    0.75959676338197	    1.49216838182318	    0.72084595970649	    0.77989951607545	    1.52061555083422	    0.78653890461601	    0.76469787888704	    1.73169821650197	    0.74503277506249	    0.74046540126742	    1.71547503859724	    0.56747802056025	    0.73840898679630	    1.77005717426046	    0.65834830564364	    0.80221243475229	    1.81274819811517	    0.84625366766493	    0.73985585174678
54	   0.265	    0.99592297178598	    1.03452877337227	    0.58349598759890	    1.05537225671278	    0.97933443111715	    0.34514565033320	    0.82347352685155	    1.00723058222552	    0.44002973558950	    1.05066803730867	    0.73353572035389	    0.30570745555771	    0.97653362389348	    0.71979521488181	    0.31122073403346	    1.06427682774757	    0.64225043742524	    0.32894405543288	    0.98499284125695	    0.63320510801636	    0.33266321641269	    0.94095831992937	    0.37200824434793	    0.36756422219165	    1.01126271640900	    0.34422367997416	    0.37482396594479	    0.92758314476501	    0.30224814026873	    0.37061017866073	    0.99202455211453	    0.28941361002901	    0.37724703177240	    1.01576750640626	    0.08767913464060	    0.47564468195405	    0.84372124776872	    0.03987417692257	    0.50340501410185	    0.94088149566731	    0.02603511051081	    0.43202154670651	    1.13988886033227	    0.03239954984240	    0.46938750589532	    1.05478286640666	    0.91275514783361	    0.69853287489995	    1.08334053555560	    0.97483718483587	    0.66546953314708	    1.14870089302334	    0.88680975474568	    0.71822506589977	    1.17175462559410	    0.94862010496328	    0.68962356777321	    1.42930721982448	    0.75517852493216	    0.77167749859612	    1.46812249679192	    0.82071368902637	    0.75799414693503	    1.49527160644932	    0.72845082664834	    0.77832688707148	    1.52236943088957	    0.79487269591004	    0.76303831017341	    1.73468467175294	    0.75733857069432	    0.73838186502644	    1.72116135021248	    0.57957628750342	    0.73646441335470	    1.77458235060890	    0.67120217074987	    0.80028076039243	    1.81438198850059	    0.85969613586410	    0.73780440927190
55	   0.270	    0.99426173785174	    1.03379716719193	    0.58201567232804	    1.05337546405508	    0.97946887639833	    0.34282084390537	    0.82148645342390	    1.00721877287454	    0.43819141907555	    1.04866745085275	    0.73330651418156	    0.30386654240999	    0.97456728567739	    0.71941969690743	    0.30930257538983	    1.06249900381010	    0.64215452420012	    0.32719798175528	    0.98324041253340	    0.63291813441889	    0.33076617075996	    0.93959680557686	    0.37162733853520	    0.36638652644953	    1.01000955434008	    0.34405617205969	    0.37363157671985	    0.92640520266467	    0.30170185648938	    0.36967288441764	    0.99095642755185	    0.28918861152067	    0.37616347792651	    1.01565520795307	    0.08764636464877	    0.47545373747521	    0.84364372049800	    0.03961267684259	    0.50333709410217	    0.94082092691075	    0.02585326766888	    0.43188687984890	    1.13985073936097	    0.03246877960745	    0.46934844338902	    1.05265591790185	    0.90968842452940	    0.69639999313488	    1.08178298151075	    0.97191672065688	    0.66415824072119	    1.14628478404615	    0.88283450905655	    0.71614042393560	    1.16995874264907	    0.94471542074099	    0.68827698878998	    1.42529065040250	    0.74779316352221	    0.77024334000031	    1.46491117332710	    0.81272486288376	    0.75645924245384	    1.49087847987244	    0.72019667694293	    0.77683909375360	    1.51876751901522	    0.78616691417484	    0.76149219875728	    1.73161341032237	    0.74536641782284	    0.73725899067979	    1.71344460966730	    0.56803362958949	    0.73472835222441	    1.76937411407666	    0.65792251314095	    0.79866330161728	    1.81402311895001	    0.84558868366526	    0.73688735270283
